<svg xmlns="http://www.w3.org/2000/svg" xmlns:xlink="http://www.w3.org/1999/xlink" fill="#000000" height="800px" width="800px" version="1.1" id="Capa_1" viewBox="0 0 182.931 182.931" xml:space="preserve">
<path d="M173.93,92.798c-4.971,0-9,4.029-9,9v50.404L30.728,18h50.404c4.971,0,9-4.029,9-9s-4.029-9-9-9H9C4.03,0,0,4.029,0,9  v72.132c0,4.971,4.029,9,9,9s9-4.029,9-9V30.729l134.202,134.202h-50.404c-4.971,0-9,4.029-9,9s4.029,9,9,9h72.132  c4.971,0,9-4.029,9-9v-72.132C182.93,96.828,178.901,92.798,173.93,92.798z"/>
</svg>