<svg width="1322" height="297" viewBox="0 0 1322 297" fill="none" xmlns="http://www.w3.org/2000/svg">
<g clip-path="url(#clip0_123_2861)">
<path d="M1041.07 111.49C1040.53 108.723 1039.95 105.961 1039.33 103.208C1038.79 100.821 1035.23 102.095 1035.76 104.458C1036.3 106.821 1036.83 109.327 1037.31 111.776C1037.79 114.224 1041.55 113.892 1041.07 111.49Z" fill="#64666A"/>
<path d="M876.763 141.636C876.616 172.761 877.971 204.057 883.812 234.683C886.129 246.841 888.767 259.588 896.128 269.802C903.498 280.034 914.988 285.916 926.818 289.272C940.459 293.138 955.03 294.298 969.148 293.547C982.832 292.819 996.455 289.914 1008.64 283.419C1019.85 277.438 1029.04 268.251 1035.42 257.23C1042.53 244.929 1045.97 230.712 1047.61 216.681C1049.39 201.527 1049.11 186.217 1048.18 171.016C1047.22 155.463 1045.67 139.939 1043.32 124.528C1042.76 120.801 1042.13 117.082 1041.44 113.378C1041 110.991 1037.23 111.258 1037.68 113.664C1040.37 128.137 1042.14 142.792 1043.4 157.455C1044.66 172.119 1045.56 187.082 1044.99 201.903C1043.96 228.525 1037.66 257.548 1015.48 274.533C1004.94 282.601 992.033 287.004 979.02 288.811C964.986 290.756 950.5 290.271 936.59 287.642C924.911 285.435 912.987 281.479 904.112 273.187C895.236 264.895 891.263 252.171 888.739 240.222C881.882 207.785 880.377 174.435 880.533 141.36C880.542 138.907 876.782 139.211 876.767 141.646L876.763 141.636Z" fill="#64666A"/>
<path d="M878.843 146.471C877.163 140.305 869.741 137.68 864.178 140.095C857.161 143.138 854.198 151.236 854.151 158.439C854.094 167.05 857.949 175.053 862.55 182.085C867.693 189.954 873.45 197.448 878.942 205.07C880.367 207.048 883.482 204.898 882.052 202.911C877.621 196.758 873.148 190.629 868.76 184.448C864.725 178.766 860.837 172.823 858.973 166.018C857.209 159.576 857.312 151.683 861.913 146.41C863.782 144.27 866.433 142.725 869.335 143.01C872.237 143.295 874.53 144.974 875.281 147.727C875.922 150.095 879.485 148.825 878.848 146.476L878.843 146.471Z" fill="#64666A"/>
<path d="M1048.11 144.874C1051.45 140.1 1058.07 138.17 1062 143.386C1065.93 148.602 1064.98 155.52 1063.3 161.259C1061.25 168.263 1057.95 174.967 1055.13 181.681C1052.2 188.642 1049.27 195.603 1046.35 202.559C1045.41 204.808 1048.82 206.434 1049.77 204.176C1053.35 195.655 1056.93 187.13 1060.52 178.609C1063.78 170.84 1067.86 162.842 1068.43 154.288C1068.83 148.335 1067.06 141.408 1061.75 138.046C1056.04 134.428 1048.89 137.19 1045.23 142.43C1043.84 144.417 1046.72 146.885 1048.12 144.874H1048.11Z" fill="#64666A"/>
<path d="M934.901 125.978C927.823 121.005 918.994 119.098 910.529 120.943C903.045 122.569 894.132 128.199 895.982 137.095C896.241 138.35 897.926 138.645 898.836 138.036C903.918 134.637 909.203 131.056 915.271 129.773C922.132 128.318 928.842 130.743 935.203 133.12C936.741 133.695 938.256 132.407 937.788 130.771C936.953 127.852 935.16 125.698 932.617 124.124C930.55 122.845 928.96 126.297 931.013 127.571C932.702 128.617 933.679 130.134 934.221 132.022L936.807 129.673C929.875 127.081 922.618 124.519 915.134 125.935C908.311 127.229 902.385 131.09 896.694 134.898L899.549 135.84C898.058 128.669 908.156 124.937 913.478 124.262C920.136 123.415 926.964 125.013 932.475 128.888C934.448 130.277 936.901 127.376 934.901 125.973V125.978Z" fill="#64666A"/>
<path d="M983.662 126.654C989.716 121.709 996.79 117.563 1004.75 117.144C1008.5 116.949 1012.3 117.586 1015.68 119.269C1017.36 120.106 1018.98 121.19 1020.19 122.645C1020.68 123.235 1021.15 123.91 1021.44 124.623C1021.6 124.994 1022.38 127.533 1021.75 127.728C1022.09 127.619 1019.96 126.378 1019.79 126.297C1018.99 125.898 1018.16 125.527 1017.33 125.184C1015.76 124.533 1014.14 123.986 1012.51 123.511C1009.14 122.536 1005.67 121.999 1002.17 121.837C994.798 121.49 987.423 122.94 980.756 126.126L982.823 129.145C985.795 125.532 989.278 122.546 993.274 120.14C995.36 118.884 993.208 115.756 991.132 117.006C986.862 119.579 983.106 122.84 979.93 126.696C978.821 128.042 980.237 130.557 981.997 129.716C988.457 126.63 995.591 125.175 1002.74 125.646C1006.24 125.879 1009.74 126.535 1013.07 127.633C1014.7 128.17 1016.3 128.822 1017.84 129.564C1019.2 130.215 1020.7 131.385 1022.27 131.332C1025.05 131.237 1025.85 128.156 1025.63 125.836C1025.36 122.84 1023.4 120.159 1021.17 118.3C1016.09 114.077 1008.96 112.722 1002.56 113.511C994.671 114.481 987.602 118.547 981.525 123.511C979.652 125.042 981.775 128.185 983.667 126.644L983.662 126.654Z" fill="#64666A"/>
<path d="M913.803 151.683L914.62 153.518C915.054 154.493 915.974 154.997 917.021 154.692C922.476 153.09 920.06 143.871 914.365 145.701C911.746 146.543 909.873 149.5 910.736 152.234C911.51 154.688 914.134 156.119 916.606 155.9C922.604 155.372 922.169 146.372 916.592 145.506C911.015 144.641 908.684 153.513 914.049 155.448C916.488 156.328 919.664 155.12 920.315 152.429C920.966 149.738 919.036 146.857 916.29 146.804C913.794 146.757 912.001 149.177 912.275 151.592C912.605 154.521 915.974 155.629 918.338 154.307C923.33 151.511 920.235 143.585 914.757 144.365C908.452 145.264 907.655 153.537 912.831 156.556C918.852 160.065 925.576 151.863 921.122 146.547C919.282 144.351 916.007 143.509 913.341 144.546C910.43 145.677 908.514 149.476 910.623 152.196C912.109 154.117 915.228 151.973 913.733 150.037C912.945 149.02 914.421 148.064 915.323 147.936C916.337 147.788 917.569 148.159 918.244 148.963C919.725 150.722 917.951 153.908 915.7 153.627C913.157 153.314 912.01 149.614 914.511 148.369C915.375 147.936 916.446 147.964 916.894 148.92C917.177 149.524 917.168 150.608 916.535 150.998C915.672 151.531 916.026 150.209 916.493 150.841C917.243 151.859 915.507 152.306 914.922 151.635C913.912 150.484 916.049 148.05 917.088 150.19C918.244 152.581 914.351 152.667 914.299 150.813C914.275 149.971 915.582 148.744 916.257 149.586C916.672 150.099 916.337 150.95 915.795 151.107L918.196 152.282L917.38 150.446C916.394 148.226 912.817 149.462 913.813 151.697L913.803 151.683Z" fill="#64666A"/>
<path d="M1002.96 147.931C1003.13 145.021 1000.4 143.153 997.658 144.018C994.383 145.055 994.482 149.282 996.775 151.279C1002.38 156.167 1009.28 146.12 1003.12 142.368C1000.74 140.923 997.337 141.393 995.605 143.647C993.741 146.072 994.643 149.672 996.931 151.469C999.427 153.423 1003.45 152.686 1004.68 149.605C1005.84 146.69 1003 143.091 999.909 144.394C997.106 145.573 996.785 150.004 999.517 151.436C1002.25 152.867 1006.01 150.366 1005.74 147.18C1005.51 144.417 1002.56 142.815 1000.03 143.195C996.959 143.657 995.483 146.899 996.728 149.667C997.974 152.434 1001.48 153.998 1004.23 152.268C1006.66 150.737 1007.66 147.337 1006.52 144.698C1004.08 139.026 994.289 140.894 994.732 147.323C994.963 150.708 998.167 153.67 1001.56 153.376C1004.96 153.081 1006.81 149.805 1006.6 146.719C1006.38 143.409 1003.57 140.823 1000.23 141.436C996.686 142.088 994.378 145.435 995.114 148.958C995.327 149.971 996.639 150.428 997.516 150.133C998.587 149.771 998.889 148.711 998.682 147.713C998.337 146.053 1001.06 144.322 1002.3 145.568C1003.34 146.614 1002.93 149.191 1001.42 149.557C999.696 149.976 997.648 147.427 998.885 145.929C999.847 144.765 1002.38 144.688 1003.07 146.191C1003.8 147.779 1001.99 150.423 1000.48 148.606C999.116 146.971 1001.52 146.376 1001.96 147.384C1002.14 147.822 1001.13 148.231 1001.4 148.221C1001.16 148.231 1002 147.342 1001.24 147.926C1001.11 148.026 1001.19 148.269 1000.97 148.507C999.729 149.904 997.384 146.961 998.856 145.73C1000.57 144.294 1002.84 146.51 1001.18 148.255C1000.45 149.02 999.262 148.949 998.875 147.841C998.691 147.318 998.804 147.893 998.979 147.636C999.021 147.575 999.187 147.651 999.239 147.67C999.484 147.746 999.239 147.522 999.257 147.261C999.121 149.676 1002.83 150.389 1002.97 147.95L1002.96 147.931Z" fill="#64666A"/>
<path d="M950.094 137.884C949.363 148.687 948.631 159.495 947.9 170.298C947.551 175.447 947.145 180.592 946.867 185.746C946.631 190.168 946.867 194.452 949.174 198.337C949.986 199.701 951.751 199.188 952.439 198.066C955.205 193.539 957.064 188.594 958.031 183.373L954.294 183.169C954.35 188.604 954.874 194.571 959.343 198.251C960.381 199.107 962.249 198.603 962.415 197.139C962.938 192.408 963.438 187.677 963.92 182.941L960.282 183.221C961.419 186.378 962.533 189.545 963.689 192.698C964.425 194.699 965.387 196.934 967.468 197.818C972.526 199.963 974.079 193.496 974.244 189.916C974.881 176.008 974.834 162.072 974.173 148.164C974.055 145.711 970.295 146.005 970.408 148.449C970.903 158.958 971.054 169.48 970.818 179.998C970.762 182.47 970.686 184.947 970.592 187.42C970.535 188.86 970.965 192.797 969.648 193.939C968.105 195.279 966.874 190.411 966.51 189.388C965.623 186.916 964.731 184.443 963.844 181.971C963.24 180.283 960.404 180.283 960.206 182.251C959.725 186.987 959.225 191.718 958.701 196.449L961.773 195.336C958.168 192.365 958.106 187.211 958.064 182.884C958.04 180.692 954.709 180.597 954.327 182.679C953.416 187.605 951.633 192.179 949.028 196.444L952.293 196.173C949.901 192.156 950.524 187.187 950.826 182.727L951.812 168.163C952.477 158.297 953.147 148.43 953.813 138.564C953.978 136.149 950.264 135.436 950.099 137.875L950.094 137.884Z" fill="#64666A"/>
<path d="M870.949 140.319C866.877 135.517 868.056 128.993 868.585 123.192C868.859 120.197 869.095 117.149 868.741 114.149C868.387 111.148 867.235 108.153 866.06 105.252C864.772 102.076 863.64 98.8809 863.998 95.3909C864.3 92.4762 865.39 89.7422 866.688 87.1461C869.42 81.6971 873.171 76.7664 875.332 71.0274C877.838 64.3802 878.239 57.1957 881.802 50.9289C885.128 45.0805 890.172 40.9533 896.009 37.8294C901.846 34.7055 907.362 32.0428 911.59 26.9124C915.483 22.1909 918.484 16.2522 924.283 13.6037C930.082 10.9553 936.514 11.7018 942.53 12.3913C948.546 13.0807 954.949 14.0697 961.098 13.0807C972.753 11.2121 984.521 -1.47846 996.322 6.50483C1001.36 9.90926 1004.69 15.2727 1007.58 20.5125C1009.19 23.4414 1010.88 26.3656 1013.39 28.6241C1015.7 30.702 1018.54 32.0714 1021.39 33.222C1031.37 37.2636 1044.68 42.86 1046.69 55.0513C1047.81 61.7793 1044.42 68.2411 1046.34 74.9976C1048.05 81.0077 1052.38 85.7244 1055.19 91.1829C1058.4 97.4165 1059.13 104.796 1057.44 111.586C1055.85 118.009 1051.39 123.297 1049.98 129.782C1049.35 132.664 1049.56 135.588 1050.89 138.232C1051.98 140.386 1055.55 139.159 1054.46 136.981C1051.17 130.429 1056.82 123.425 1059.36 117.586C1062.05 111.396 1062.77 104.444 1061.43 97.8254C1060.06 90.9737 1056.16 85.7197 1052.68 79.8475C1050.92 76.8853 1049.46 73.6853 1049.36 70.1763C1049.25 66.4437 1050.42 62.7921 1050.62 59.0786C1051.32 46.5592 1040.83 37.7866 1030.58 32.8987C1024.32 29.9079 1017.22 28.6194 1013.11 22.4667C1009.45 16.9891 1006.91 11.117 1002.14 6.41925C997.945 2.29209 992.453 -0.389615 986.47 0.047826C979.802 0.532815 974.069 4.36993 968.095 6.98507C961.678 9.79515 955.308 9.98534 948.433 9.25786C942.063 8.58268 935.509 7.35594 929.106 8.32116C922.915 9.25786 918.031 12.4293 914.129 17.2982C912.105 19.8278 910.349 22.5618 908.245 25.0247C905.937 27.7207 903.153 29.7082 900.082 31.4342C894.079 34.8054 888.011 37.4918 883.236 42.646C878.461 47.8002 875.932 53.6248 874.37 60.1579C873.459 63.9617 872.723 67.7893 871.109 71.3745C869.774 74.3415 868.08 77.123 866.424 79.9141C863.399 85.016 860.304 90.4317 860.172 96.5368C860.016 103.536 864.801 109.265 865.121 116.179C865.409 122.389 863.545 128.627 864.499 134.818C864.937 137.666 865.971 140.267 867.844 142.473C869.406 144.318 872.53 142.178 870.954 140.314L870.949 140.319Z" fill="#64666A"/>
<path d="M943.096 44.7331C947.645 52.3883 956.87 55.6168 965.354 55.2507C970.243 55.0367 975.952 53.6008 980.671 55.3696C984.785 56.9101 987.31 60.3146 989.306 64.0613C992.576 70.2045 996.223 77.3225 1004.11 77.6363C1008.63 77.817 1014.59 74.9736 1016.2 81.1643C1017.39 85.7384 1016.25 91.0068 1019.06 95.0911C1022.24 99.708 1029.41 97.169 1032.41 101.743C1034.81 105.414 1033.95 111.077 1037.82 113.787C1039.8 115.171 1042.25 112.275 1040.25 110.872C1038.61 109.722 1038.34 107.492 1037.87 105.661C1037.36 103.645 1036.78 101.634 1035.68 99.8507C1033.03 95.5381 1028.61 95.6902 1024.3 94.2733C1019.52 92.7042 1020.77 85.0633 1020.01 81.036C1019.32 77.3748 1017.01 74.1415 1013.24 73.3712C1008.72 72.4488 1004.32 75.1305 1000.04 72.5391C996.917 70.6467 995.138 67.1139 993.491 63.9853C991.74 60.6522 990.127 57.5235 987.244 55.0225C983.856 52.0793 979.958 50.8573 975.532 50.8383C969.813 50.8145 964.005 52.2932 958.361 50.9096C953.392 49.6924 948.858 47.0725 946.187 42.5744C944.937 40.4728 941.837 42.641 943.078 44.7331H943.096Z" fill="#64666A"/>
<path d="M907.15 60.5572C903.427 68.0983 903.46 80.7889 893.424 82.8144C891.069 83.2899 891.329 87.089 893.707 86.6087C899.147 85.5104 902.941 82.2961 905.234 77.2275C907.528 72.1589 908.198 66.9714 910.571 62.1691C911.652 59.9771 908.235 58.3605 907.15 60.5525V60.5572Z" fill="#64666A"/>
<path d="M908.434 58.4079C908.061 58.9642 907.702 59.53 907.381 60.1149C907.16 60.5143 907.164 61.1277 907.306 61.5461C907.462 61.993 907.849 62.459 908.287 62.6444C909.283 63.0629 910.283 62.6635 910.798 61.7315C910.963 61.4272 911.142 61.1277 911.326 60.8329L911.062 61.2465C911.147 61.1134 911.232 60.9803 911.321 60.8519C911.605 60.4287 911.798 60.015 911.756 59.4873C911.723 59.0165 911.463 58.465 911.086 58.1702C910.708 57.8754 910.222 57.6709 909.731 57.7327C909.241 57.7945 908.707 57.9895 908.424 58.4079H908.434Z" fill="#64666A"/>
<path d="M939.293 46.2784C936.089 50.805 931.243 52.7212 925.906 53.3726C923.387 53.6816 920.848 53.7577 918.314 53.7767C915.106 53.8053 913.124 54.2712 910.425 56.1494C908.424 57.5378 910.566 60.6759 912.567 59.2828C914.176 58.1654 915.323 57.5853 917.29 57.5806C918.607 57.5806 919.919 57.5663 921.235 57.5235C923.958 57.4332 926.666 57.2049 929.337 56.6486C934.49 55.5693 939.09 53.1063 942.19 48.7271C943.587 46.7492 940.713 44.2814 939.298 46.2832L939.293 46.2784Z" fill="#64666A"/>
<path d="M944.04 42.1226C941.228 45.955 937.882 49.2025 933.966 51.8747L936.481 54.6658C940.459 50.5719 944.437 46.4828 948.414 42.3889L945.522 39.9449C943.252 42.8358 940.756 45.4938 937.972 47.8854L940.487 50.6765C942.804 48.1279 945.125 45.5794 947.442 43.0308L944.286 41.0005C942.497 45.6602 939.241 49.5068 934.91 51.9746C930.2 54.6563 925.388 54.3139 920.207 54.8607C915.648 55.3457 911.973 57.3712 909.561 61.3415C907.15 65.3118 906.433 69.6434 904.21 73.4852C900.063 80.6555 890.928 83.128 887.096 90.6168C884.808 95.0815 885.699 99.8981 886.747 104.572C887.318 107.111 887.964 109.745 887.691 112.37C887.384 115.304 885.879 117.9 884.425 120.396C878.022 131.403 875.243 143.69 877.824 156.342C878.31 158.71 882.075 158.453 881.589 156.057C879.282 144.755 881.25 133.348 887.021 123.411C889.654 118.87 891.961 114.571 891.418 109.141C890.913 104.149 888.219 98.814 889.842 93.8025C891.107 89.894 894.651 87.2884 897.765 84.9205C900.879 82.5526 904.404 80.0041 906.711 76.5854C909.019 73.1667 910.057 68.9254 911.831 65.1168C912.704 63.2434 913.813 61.4081 915.554 60.2289C917.795 58.7121 920.556 58.5885 923.165 58.4791C928.61 58.2556 933.555 57.4521 938.213 54.3852C942.502 51.5561 945.852 47.4242 947.702 42.6124C948.466 40.6201 946.031 38.9464 944.545 40.5821C942.228 43.1306 939.907 45.6792 937.59 48.2278C936.179 49.7778 938.467 52.4263 940.105 51.0188C943.148 48.4037 945.918 45.5556 948.405 42.3937C949.924 40.4585 947.202 38.2094 945.512 39.9497L933.579 52.2266C932.06 53.7909 934.372 56.1921 936.094 55.0176C940.275 52.1695 943.917 48.67 946.919 44.5809C948.353 42.6219 945.475 40.1589 944.026 42.1369L944.04 42.1226Z" fill="#64666A"/>
<path d="M914.492 221.093C923.939 233.598 938.104 242.143 953.506 244.653C968.577 247.111 984.115 243.341 996.705 234.711C1003.76 229.871 1009.68 223.608 1014.19 216.319C1015.47 214.246 1012.04 212.649 1010.77 214.703C1003.3 226.756 991.255 235.624 977.736 239.513C963.821 243.522 948.839 241.567 936.108 234.754C928.889 230.888 922.547 225.482 917.597 218.93C916.13 216.99 913.015 219.134 914.488 221.088L914.492 221.093Z" fill="#64666A"/>
<path d="M895.075 177.882C891.621 182.446 887.7 188.746 890.663 194.547C893.386 199.882 900.214 200.871 905.13 198.204C910.047 195.536 913.61 189.374 912.534 183.545C911.529 178.115 906.433 173.736 900.827 174.644C894.546 175.661 891.107 182.152 889.474 187.715C888.785 190.064 892.503 190.729 893.188 188.404C894.344 184.458 896.882 179.109 901.412 178.381C907.367 177.425 910.108 184.453 908.287 189.174C906.466 193.896 900.52 198.028 895.75 194.747C890.446 191.1 895.226 183.949 897.967 180.321C899.435 178.381 896.557 175.923 895.075 177.877V177.882Z" fill="#64666A"/>
<path d="M1008.87 172.3C1002.73 176.127 1002.04 185.161 1007.99 189.569C1013.82 193.896 1023.48 190.829 1027.3 185.061C1031.13 179.294 1026.02 171.8 1020.14 169.789C1014.58 167.887 1007.21 169.713 1004.91 175.623C1004.03 177.891 1007.44 179.527 1008.34 177.24C1009.8 173.479 1014.21 172.3 1017.87 173.089C1021.53 173.878 1026.54 178.186 1024.5 182.413C1022.46 186.64 1015.61 188.96 1011.54 187.249C1006.35 185.061 1006.57 178.205 1011.02 175.428C1013.09 174.14 1010.94 171.011 1008.88 172.295L1008.87 172.3Z" fill="#64666A"/>
</g>
<g clip-path="url(#clip1_123_2861)">
<path d="M1120.95 116.667C1121.04 139.902 1123.76 163.055 1129.04 185.683C1133.62 205.249 1139.5 226.328 1154.4 240.699C1161.69 247.725 1170.73 252.832 1179.95 256.872C1189.17 260.912 1200.03 264.034 1210.56 262.532C1229.95 259.77 1244.6 244.963 1253.67 228.442C1264.17 209.318 1270.42 187.203 1274.71 165.911C1279.1 144.113 1281.86 120.831 1277.62 98.786C1273.94 79.6149 1264.4 62.5052 1246.68 53.2525C1229.6 44.3295 1208.65 41.5967 1189.69 44.1823C1170.99 46.7326 1153.08 54.8604 1140.08 68.7484C1128.03 81.6233 1120.45 98.8625 1120.05 116.573C1119.95 121.084 1120.38 125.567 1121.27 129.984C1121.86 132.923 1126.56 132.599 1125.96 129.63C1122.59 112.927 1126.71 95.5525 1136.05 81.4289C1145.85 66.6163 1160.72 56.3799 1177.69 51.4738C1195.49 46.3262 1214.95 46.9799 1232.58 52.5339C1241.67 55.4022 1250.43 59.796 1257.23 66.6045C1263.59 72.9772 1267.82 81.211 1270.54 89.7276C1276.84 109.505 1275.51 131.144 1272.48 151.387C1269.45 171.63 1263.98 192.709 1256.09 212.169C1249.1 229.397 1238.69 246.865 1220.98 254.646C1202.41 262.797 1181.62 254.693 1165.83 243.862C1149.35 232.559 1141.77 214.843 1136.59 196.173C1130.78 175.288 1127.29 153.772 1126.1 132.134C1125.82 126.862 1125.67 121.579 1125.66 116.302C1125.65 113.263 1120.95 113.634 1120.97 116.655L1120.95 116.667Z" fill="#F27059"/>
<path d="M1144.79 137.882C1146.5 145.008 1150.88 154.255 1159.84 152.353C1168.67 150.48 1170.48 140.626 1173.77 133.718C1175.07 130.985 1170.82 128.977 1169.51 131.715C1167.1 136.757 1166.01 144.149 1160.67 147.07C1153.67 150.898 1150.42 141.321 1149.23 136.333C1148.53 133.382 1144.09 134.955 1144.79 137.882H1144.79Z" fill="#F27059"/>
<path d="M1224.3 135.826C1225.37 143.925 1228.81 153.384 1238.58 153.054C1248.35 152.724 1253.74 142.717 1255.18 133.889C1255.67 130.897 1251.04 130.037 1250.55 133.035C1249.5 139.519 1246.57 147.417 1239.05 148.295C1231.52 149.173 1229.73 141.104 1228.99 135.473C1228.59 132.475 1223.9 132.817 1224.3 135.826V135.826Z" fill="#F27059"/>
<path d="M1190.78 133.023C1190.99 146.528 1189.35 160.004 1185.87 173.055C1185.06 176.095 1183.99 179.057 1183.16 182.09C1182.52 184.434 1182.63 187.032 1184.8 188.54C1186.58 189.776 1188.66 189.335 1190.12 187.862C1192.27 185.689 1193.89 182.479 1195.61 179.952L1191.5 178.009C1190.67 182.155 1191.41 186.048 1193.55 189.67C1194.3 190.943 1196.42 191.031 1197.29 189.847C1199.12 187.356 1200.56 184.717 1201.56 181.778L1197.49 182.114C1198.32 183.451 1197.74 185.194 1198.85 186.567C1199.67 187.574 1200.93 188.251 1202.26 188.051C1205.68 187.538 1207.05 181.831 1208 179.157C1210.79 171.277 1211.92 162.99 1211.43 154.65C1211.26 151.617 1206.57 151.976 1206.74 155.003C1207.04 160.086 1206.72 165.14 1205.68 170.128C1205.16 172.684 1204.46 175.205 1203.56 177.661C1203.19 178.686 1201.46 183.339 1201.21 183.327L1202.89 183.869C1202.13 183.298 1201.95 180.388 1201.36 179.44C1200.48 178.026 1197.87 178.085 1197.3 179.776C1196.43 182.326 1195.28 184.641 1193.69 186.814L1197.43 186.991C1195.92 184.44 1195.55 181.737 1196.13 178.851C1196.56 176.666 1193.37 174.917 1192.01 176.907C1190.65 178.898 1189.17 181.089 1187.73 183.168C1187.41 183.651 1187.08 184.122 1186.73 184.588C1187.51 183.863 1187.97 182.974 1188.11 181.914C1188.4 181.018 1188.69 180.123 1188.97 179.222C1190.55 174.098 1191.84 168.88 1192.85 163.614C1194.8 153.413 1195.63 143.036 1195.47 132.652C1195.43 129.613 1190.74 129.984 1190.78 133.005V133.023Z" fill="#F27059"/>
<path d="M1168.24 213.471C1172.92 217.546 1178.13 221.009 1183.75 223.636C1189.37 226.263 1195.24 228.372 1201.32 227.158C1206.84 226.051 1211.52 222.623 1215.62 218.901C1220.46 214.495 1224.75 209.56 1228.48 204.182C1230.19 201.715 1226.61 198.658 1224.88 201.155C1221.79 205.608 1218.33 209.778 1214.46 213.571C1210.59 217.364 1206.43 220.98 1201.28 222.358C1195.64 223.866 1189.85 221.38 1184.84 218.942C1179.84 216.504 1175.4 213.465 1171.26 209.86C1168.98 207.875 1165.95 211.48 1168.24 213.471V213.471Z" fill="#F27059"/>
<path d="M1186.44 217.805C1186.76 217.187 1187.81 214.537 1188.93 215.438C1189.3 215.738 1189.31 217.116 1189.46 217.582C1189.91 218.995 1190.65 220.167 1192.12 220.65C1193.06 220.956 1194.27 220.939 1194.92 220.032C1196.05 218.447 1197.28 216.963 1198.72 215.65C1199 215.397 1200.06 214.16 1200.43 214.289C1200.5 214.313 1201.02 216.533 1201.06 216.628C1202.07 219.502 1203.93 221.946 1206.26 223.866C1208.59 225.786 1211.63 222.187 1209.28 220.256C1207.34 218.654 1205.94 216.698 1205.23 214.26C1204.68 212.363 1204.4 210.467 1202.36 209.613C1198.06 207.811 1193.39 214.107 1191.31 217.004L1194.11 216.386C1193.71 216.256 1193.19 213.341 1192.84 212.77C1192.1 211.556 1190.94 210.773 1189.54 210.543C1185.9 209.954 1183.64 212.941 1182.18 215.815C1180.81 218.518 1185.06 220.521 1186.44 217.817V217.805Z" fill="#F27059"/>
<path d="M1181.75 223.86C1183.51 229.932 1187.45 236.287 1194.48 236.499C1197.66 236.594 1200.24 235.168 1202.33 232.836C1205.24 229.579 1207.74 225.845 1210.4 222.376C1212.23 219.979 1208.65 216.934 1206.79 219.349C1204.94 221.763 1203.15 224.102 1201.33 226.481C1199.89 228.348 1198.42 231.046 1196.01 231.682C1190.45 233.16 1187.4 226.463 1186.2 222.311C1185.35 219.39 1180.91 220.956 1181.75 223.86H1181.75Z" fill="#F27059"/>
<path d="M1147.01 168.461C1141.22 171.153 1137.47 177.149 1137.98 183.622C1138.48 190.094 1143.42 194.983 1149.48 196.438C1156.43 198.104 1162.71 194.335 1166.43 188.592C1168.2 185.848 1170.08 182.326 1170.09 178.98C1170.1 175.635 1168.02 172.413 1165.45 170.34C1159.86 165.835 1151.43 165.646 1145.74 170.028C1143.35 171.866 1146 175.759 1148.41 173.909C1152.63 170.658 1159.02 170.705 1163 174.439C1166.02 177.278 1165.44 180.388 1163.77 183.786C1162.45 186.478 1160.58 189.07 1158 190.672C1153.32 193.575 1146.73 191.879 1143.9 187.167C1141.07 182.455 1143.46 175.288 1148.55 172.92C1151.27 171.654 1149.75 167.189 1147 168.467L1147.01 168.461Z" fill="#F27059"/>
<path d="M1231.15 170.464C1226.39 177.237 1224.57 188.298 1233.5 192.75C1240.56 196.267 1249.8 192.945 1253.55 186.166C1257.12 179.693 1254.7 170.705 1248.23 167.054C1241.69 163.355 1232.89 166.471 1229.87 173.256C1228.64 176.024 1232.89 178.032 1234.13 175.258C1236.07 170.917 1241.73 168.75 1245.97 171.182C1250.22 173.615 1251.68 179.263 1249.66 183.474C1247.65 187.685 1242.19 190.253 1237.52 189.205C1229.72 187.456 1231.3 178.438 1234.77 173.503C1236.5 171.047 1232.91 167.984 1231.16 170.476L1231.15 170.464Z" fill="#F27059"/>
<path d="M1185.17 34.747C1168.04 31.4488 1150.52 36.2018 1136.03 45.5605C1120.82 55.3905 1109.64 70.1855 1101.78 86.3351C1093.37 103.616 1088.29 122.563 1084.78 141.398C1080.98 161.7 1079.38 182.426 1079.93 203.07C1080.55 226.299 1083.98 249.392 1090.04 271.82C1090.28 272.739 1091.47 273.558 1092.44 273.399C1117.56 269.164 1142.05 261.808 1165.31 251.383C1168.06 250.152 1166.53 245.693 1163.77 246.93C1140.89 257.184 1116.8 264.535 1092.08 268.699L1094.48 270.277C1084.2 232.206 1081.84 192.079 1087.6 153.06C1090.36 134.313 1094.71 115.483 1101.81 97.879C1108.38 81.5939 1117.78 65.8565 1131.54 54.6543C1146.21 42.6981 1165.39 35.7365 1184.32 39.3763C1187.3 39.9476 1188.15 35.3124 1185.17 34.7411L1185.17 34.747Z" fill="#F27059"/>
<path d="M1190.59 37.8447C1207.95 26.878 1229.59 26.2125 1248.85 32.0551C1258.68 35.0353 1268 39.6293 1276.71 45.0655C1285.41 50.5017 1293.8 56.9333 1299.8 65.444C1311.17 81.5524 1314.09 102.002 1315.74 121.184C1317.66 143.542 1317.29 166.058 1315.2 188.392C1312.83 213.635 1308.32 238.631 1302.55 263.309L1305.86 261.601C1285.67 253.409 1265.49 245.216 1245.3 237.018C1242.51 235.881 1240.49 240.139 1243.3 241.288C1263.49 249.48 1283.67 257.673 1303.86 265.871C1305.31 266.46 1306.81 265.695 1307.17 264.163C1317.9 218.253 1324.31 170.852 1320.66 123.658C1319.11 103.627 1316.3 82.3946 1305.26 65.1259C1299.52 56.1559 1291.5 49.2119 1282.7 43.3693C1273.93 37.5561 1264.6 32.544 1254.67 29.0455C1232.82 21.3476 1207.97 21.3005 1187.93 33.9693C1185.37 35.5889 1188.04 39.4644 1190.6 37.8506L1190.59 37.8447Z" fill="#F27059"/>
<path d="M1185.38 54.6246C1200.26 83.4313 1223.56 107.544 1251.59 123.729C1259.67 128.399 1268.15 132.351 1276.9 135.591C1279.72 136.633 1281.74 132.375 1278.9 131.321C1249.03 120.266 1222.63 100.5 1203.59 74.9265C1198.18 67.6763 1193.41 59.9843 1189.26 51.9507C1187.87 49.265 1184.02 51.9625 1185.38 54.6246V54.6246Z" fill="#F27059"/>
<path d="M1186.41 62.1576C1169.95 89.7804 1149.09 114.717 1124.81 135.767C1122.55 137.729 1125.19 141.634 1127.48 139.649C1152.43 118.016 1173.76 92.5545 1190.66 64.1601C1192.21 61.5568 1187.95 59.572 1186.4 62.1576H1186.41Z" fill="#F27059"/>
</g>
<g clip-path="url(#clip2_123_2861)">
<path d="M650.508 80.9766C646.566 104.215 644.946 127.835 645.784 151.388C646.196 163.065 647.139 174.768 648.851 186.335C650.452 197.12 652.885 207.931 657.565 217.837C665.344 234.289 679.361 247.948 696.544 254.303C713.499 260.573 732.554 259.041 748.271 250.076C766.667 239.592 774.292 220.076 780.746 200.972C788.038 179.376 792.94 157.005 795.225 134.326C796.359 123.079 797.011 111.691 796.716 100.388C796.445 89.7995 794.807 79.2354 790.021 69.6865C781.664 53.0127 766.119 40.9227 748.37 35.5884C711.165 24.409 659.487 42.1902 649.824 83.167C648.691 87.9722 648.321 92.9189 648.629 97.8411C648.826 101.01 653.741 100.634 653.544 97.4719C650.914 55.1785 700.381 32.8997 736.379 37.9941C754.461 40.5536 771.286 49.9979 781.688 65.1704C793.445 82.3179 792.552 103.846 791.204 123.713C789.775 144.706 786.123 165.545 780.352 185.781C777.445 195.976 774.027 206.066 769.95 215.849C766.255 224.727 761.605 233.31 754.294 239.752C741.57 250.969 723.439 255.534 706.866 252.168C689.936 248.729 675.161 237.537 666.003 223.066C655.028 205.716 652.879 184.058 651.401 164.056C649.768 141.956 650.298 119.708 653.008 97.718C653.661 92.4144 654.449 87.1293 655.342 81.8564C655.872 78.7309 651.025 77.8387 650.495 80.9643L650.508 80.9766Z" fill="#009193"/>
<path d="M775.394 128.075C780.592 131.736 785.981 135.101 791.573 138.141C794.356 139.654 796.444 135.194 793.667 133.68C788.45 130.844 783.425 127.724 778.566 124.304C775.997 122.495 772.801 126.242 775.4 128.075H775.394Z" fill="#009193"/>
<path d="M714.78 41.7165C720.926 61.1097 728.963 80.2445 742.081 96.0261C744.089 98.444 748.166 95.6753 746.14 93.2327C733.281 77.7526 725.465 59.1162 719.436 40.0983C718.475 37.0712 713.825 38.7017 714.78 41.7165V41.7165Z" fill="#009193"/>
<path d="M651.696 108.522C650.883 109.18 650.064 109.845 649.251 110.503C648.253 111.309 647.773 112.81 648.623 113.924C649.38 114.921 650.975 115.419 652.047 114.552C652.866 113.893 653.679 113.229 654.492 112.57C655.49 111.758 655.97 110.263 655.12 109.15C654.363 108.153 652.768 107.655 651.696 108.522Z" fill="#009193"/>
<path d="M710.802 40.7811C701.908 61.1772 687.349 78.2262 670.597 92.6542C668.22 94.703 670.992 98.7761 673.393 96.7088C690.81 81.7086 706.01 64.0874 715.267 42.873C716.529 39.9751 712.076 37.8709 710.802 40.7811V40.7811Z" fill="#009193"/>
<path d="M704.839 126.094C702.813 137.999 700.787 149.911 698.767 161.816C697.837 167.298 696.254 173.069 696.014 178.619C695.86 182.114 697.344 185.276 701.138 185.461C702.043 185.504 702.776 184.753 703.183 184.052C706.145 178.982 708.67 173.722 710.77 168.24L706.084 167.378C706.675 172.214 707.038 177.056 707.174 181.929C707.235 184.12 710.179 184.913 711.516 183.326C715.162 179.019 716.886 173.715 716.479 168.092C716.276 165.292 712.125 165.077 711.602 167.827C710.573 173.193 711.922 178.625 715.531 182.76C716.763 184.169 719.781 184.175 719.984 181.806C721.351 165.754 722.724 149.702 724.092 133.649C724.356 130.518 719.516 129.601 719.245 132.757C717.878 148.809 716.504 164.862 715.137 180.914L719.59 179.96C716.787 176.749 715.642 172.922 716.449 168.707L711.571 168.443C711.885 172.823 710.579 176.792 707.746 180.145L712.088 181.542C711.953 176.669 711.589 171.827 710.998 166.991C710.721 164.72 707.248 163.687 706.311 166.129C704.211 171.611 701.686 176.872 698.724 181.942L700.769 180.533C701.415 180.563 700.898 179.431 700.898 178.958C700.898 177.924 701.206 176.792 701.378 175.783C701.785 173.402 702.191 171.021 702.592 168.64C703.368 164.074 704.144 159.509 704.92 154.944C706.508 145.616 708.091 136.289 709.68 126.961C710.21 123.836 705.369 122.944 704.833 126.069L704.839 126.094Z" fill="#009193"/>
<path d="M678.357 123.344C675.204 123.818 673.522 127.509 675.389 130.186C677.538 133.262 682.305 131.687 683.198 128.401C684.134 124.974 680.389 121.824 677.113 122.864C675.185 123.473 674.674 125.762 675.241 127.515C675.746 129.072 677.07 130.29 678.665 130.653C682.496 131.514 685.31 126.5 682.958 123.534C682.44 122.882 681.627 122.341 680.747 122.476C678.868 122.765 677.273 123.91 676.577 125.719C675.931 127.405 675.98 129.503 677.224 130.924C678.123 131.945 679.423 132.351 680.648 131.551C682.249 130.512 683.044 128.426 682.465 126.592C681.886 124.759 680.008 123.824 678.215 124.445C675.155 125.503 674.243 130.087 677.396 131.619C680.248 133.003 682.348 128.549 679.49 127.158C680.075 127.441 680.359 128.149 680.272 128.77C680.322 128.518 680.297 128.567 680.199 128.918C680.242 128.82 680.285 128.721 680.34 128.629C680.137 128.93 680.125 128.98 680.291 128.777C679.989 129.029 679.946 129.078 680.162 128.924C679.632 129.256 678.905 129.287 678.394 128.869L677.649 127.792C677.747 128.063 677.772 128.063 677.723 127.804C677.772 127.552 677.772 127.564 677.723 127.848C677.827 127.657 678.24 127.257 677.858 127.503L681.282 128.131C681.209 128.057 681.141 127.977 681.085 127.891C680.981 127.737 680.999 127.786 681.135 128.044C681.178 127.897 681.048 127.786 681.104 128.094C681.079 127.946 681.135 127.435 681.061 127.909C681.073 127.841 681.209 127.306 681.11 127.608C681.011 127.909 681.252 127.343 681.258 127.337C681.098 127.638 681.153 127.454 681.332 127.294C681.461 127.158 681.424 127.189 681.215 127.398L681.381 127.288L681.147 127.405C681.412 127.318 681.399 127.312 681.116 127.386L678.905 126.328C679.201 126.703 678.924 126.192 678.893 126.026C678.905 126.303 678.917 126.297 678.924 126.008L678.887 126.211C678.979 125.94 678.967 125.934 678.856 126.192L678.973 125.996C678.776 126.211 678.794 126.199 679.016 125.965C679.121 125.885 679.232 125.842 679.361 125.829C679.607 125.793 679.743 125.872 679.952 125.971C680.094 126.082 680.063 126.057 679.866 125.903C680.032 126.106 680.057 126.137 679.946 125.989C679.847 125.836 679.854 125.873 679.977 126.1C679.903 125.86 679.884 125.829 679.928 125.996C679.915 126.168 679.724 126.734 679.94 126.297L678.517 127.577C678.16 127.688 678.671 127.62 678.486 127.577C678.252 127.528 678.733 127.761 678.548 127.608C678.363 127.454 678.856 127.866 678.511 127.62C678.289 127.46 678.474 127.423 678.523 127.638C678.523 127.626 678.394 127.06 678.431 127.38C678.468 127.7 678.468 127.115 678.468 127.103C678.468 126.679 678.554 127.214 678.431 127.091L678.585 126.931C678.369 127.066 678.339 127.091 678.499 126.992C678.573 126.955 678.948 126.9 678.696 126.918C678.443 126.937 678.93 126.955 678.998 126.986C679.17 127.06 679.269 127.189 679.398 127.312L679.533 127.577C679.466 127.355 679.459 127.343 679.515 127.528C679.515 127.583 679.515 128.063 679.533 127.811C679.558 127.528 679.355 128.192 679.533 127.78C679.459 127.958 679.275 128.051 679.49 127.86C679.232 128.087 679.078 128.198 678.733 128.247C680.051 128.051 681.11 127.005 681.005 125.608C680.913 124.359 679.687 123.141 678.363 123.338L678.357 123.344Z" fill="#009193"/>
<path d="M750.285 127.011C749.386 125.423 747.292 125.03 745.703 125.713C743.818 126.525 742.851 128.611 743.615 130.555C744.379 132.499 746.349 133.527 748.308 133.348C750.396 133.157 751.941 131.576 752.89 129.835C753.266 129.146 753.21 128.001 752.687 127.392C751.387 125.885 749.533 125.27 747.612 126.002C745.967 126.629 744.576 128.069 744.342 129.853C744.083 131.816 745.315 133.668 747.181 134.253C748.751 134.745 750.531 134.351 751.812 133.33C754.885 130.887 753.432 126.125 749.607 125.583C748.098 125.368 746.491 125.737 745.308 126.716C743.492 128.217 742.95 131.139 745.315 132.431C747.359 133.545 750.057 132.93 751.362 130.998C752.668 129.066 752.243 126.088 750.26 124.697C749.17 123.935 747.698 123.922 746.787 124.999C745.986 125.953 745.998 127.7 747.088 128.469C747.322 128.666 747.359 128.672 747.199 128.488C747.125 128.254 747.138 128.278 747.242 128.567C747.205 128.481 747.205 128.395 747.242 128.315C747.193 128.604 747.187 128.641 747.212 128.426C747.378 128.217 747.409 128.192 747.624 128.063C747.298 128.26 747.439 127.934 747.741 128.161L748.616 129.866C748.64 130.038 748.616 130.204 748.536 130.364C748.659 130.124 748.64 130.149 748.474 130.45C748.191 130.678 748.16 130.709 748.382 130.53C748.622 130.383 748.585 130.395 748.277 130.561C748.394 130.512 748.511 130.469 748.634 130.432C748.32 130.481 748.302 130.487 748.579 130.45C748.708 130.438 748.837 130.432 748.967 130.432C748.659 130.413 748.64 130.419 748.905 130.45C749.17 130.512 749.152 130.506 748.837 130.419C749.084 130.542 749.059 130.518 748.764 130.346C749.059 130.733 748.61 130.001 748.573 129.958C748.868 130.352 748.548 130.352 748.628 129.841C748.653 129.663 748.727 129.503 748.856 129.373C748.671 129.583 748.702 129.577 748.942 129.343C748.837 129.429 748.733 129.503 748.616 129.57C748.911 129.429 748.924 129.417 748.659 129.527C748.388 129.607 748.4 129.607 748.696 129.54C748.419 129.552 748.431 129.564 748.739 129.583C748.511 129.54 748.486 129.54 748.671 129.595C748.85 129.663 748.831 129.65 748.628 129.558C748.936 129.743 749.188 129.921 749.219 130.315C749.232 130.475 749.201 130.629 749.133 130.77C749.256 130.524 749.25 130.53 749.108 130.782C749.305 130.573 749.293 130.573 749.078 130.782C749.188 130.696 749.312 130.616 749.435 130.542C749.164 130.678 749.164 130.69 749.435 130.586C749.152 130.629 749.145 130.635 749.423 130.61C749.041 130.561 748.887 130.487 748.634 130.192L748.431 127.749C748.24 128.1 748.086 128.168 747.858 128.426C748.074 128.18 748.172 129.06 747.883 128.426C747.907 128.481 748.074 128.488 748.092 128.574C748.24 129.152 748.339 129.429 747.944 129.921C747.735 130.179 747.612 130.284 747.292 130.309C746.817 130.339 745.838 129.115 746.232 129.81C746.891 130.967 748.634 131.145 749.657 130.438C750.833 129.626 750.944 128.174 750.285 127.017V127.011Z" fill="#009193"/>
<path d="M671.096 112.103C675.567 106.701 684.036 106.75 688.729 111.801C690.878 114.115 694.031 110.331 691.894 108.03C685.384 101.028 673.338 101.662 667.321 108.94C665.307 111.377 669.07 114.558 671.096 112.103V112.103Z" fill="#009193"/>
<path d="M679.835 209.075C700.72 223.312 730.004 221.122 748.585 204.036C750.907 201.901 747.119 198.751 744.81 200.873C728.354 216.003 701.452 217.886 683.001 205.303C680.408 203.538 677.205 207.285 679.835 209.075V209.075Z" fill="#009193"/>
<path d="M659.597 162.327V163.287C659.61 163.619 659.702 163.927 659.874 164.204C659.998 164.517 660.201 164.776 660.466 164.985C660.921 165.367 661.636 165.625 662.233 165.551C662.874 165.477 663.533 165.207 663.939 164.677L664.284 164.142C664.463 163.755 664.543 163.342 664.512 162.912V161.952C664.5 161.62 664.407 161.312 664.235 161.035C664.112 160.721 663.908 160.463 663.644 160.254C663.188 159.872 662.473 159.614 661.876 159.688C661.236 159.761 660.577 160.032 660.17 160.561L659.825 161.097C659.647 161.484 659.566 161.896 659.597 162.327Z" fill="#009193"/>
<path d="M678.603 158.826C681.781 158.826 681.387 153.916 678.234 153.916C675.081 153.916 675.45 158.826 678.603 158.826Z" fill="#009193"/>
<path d="M674.754 176.14C677.932 176.14 677.538 171.23 674.385 171.23C671.231 171.23 671.601 176.14 674.754 176.14Z" fill="#009193"/>
<path d="M747.926 163.638C751.104 163.638 750.71 158.728 747.557 158.728C744.403 158.728 744.773 163.638 747.926 163.638Z" fill="#009193"/>
<path d="M768.145 165.563C771.323 165.563 770.929 160.654 767.776 160.654C764.623 160.654 764.992 165.563 768.145 165.563Z" fill="#009193"/>
<path d="M754.664 180.951C757.842 180.951 757.448 176.041 754.294 176.041C751.141 176.041 751.511 180.951 754.664 180.951Z" fill="#009193"/>
<path d="M649.602 113.21C647.822 123.011 648.77 132.142 655.686 139.74C661.562 146.188 669.273 152.587 678.474 152.593C687.398 152.593 695.392 145.745 700.029 138.633C704.667 131.52 707.58 122.261 706.428 113.733C705.72 108.479 703.49 103.575 700.122 99.4958C697.313 96.0934 695.152 93.0109 690.619 91.9281C687.527 91.1897 686.646 96.038 689.726 96.7702C693.353 97.6316 696.402 102.277 698.286 105.31C700.898 109.512 702.092 114.459 701.661 119.394C700.885 128.253 696.704 137.273 689.695 142.903C685.895 145.955 681.479 148.213 676.478 147.548C671.736 146.914 667.542 144.109 664.007 141.045C660.306 137.839 656.53 134.129 654.843 129.435C653.063 124.482 653.531 119.172 654.455 114.096C655.021 110.977 650.174 110.085 649.608 113.204L649.602 113.21Z" fill="#009193"/>
<path d="M692.738 92.082C676.097 85.0002 656.74 93.1587 650.526 110.171C649.448 113.124 653.901 115.247 654.991 112.263C660.263 97.8285 676.312 90.4392 690.65 96.5426C693.557 97.7793 695.669 93.3309 692.744 92.082H692.738Z" fill="#009193"/>
<path d="M708.202 121.363C714.392 118.397 721.253 118.04 727.633 120.661C730.552 121.861 732.671 117.413 729.727 116.201C722.238 113.124 713.918 113.204 706.589 116.711C703.756 118.065 705.351 122.729 708.208 121.363H708.202Z" fill="#009193"/>
<path d="M751.042 90.6053C736.569 89.7563 729.203 103.864 726.561 116.096C723.919 128.327 728.742 140.565 740.067 146.779C750.648 152.581 763.471 149.985 772.05 141.863C780.863 133.52 783.265 120.68 778.818 109.488C773.374 95.7797 759.246 87.7566 744.662 89.5102C741.515 89.8855 741.878 94.7953 745.031 94.42C755.723 93.1341 766.365 97.6932 772.087 106.959C777.198 115.241 777.697 126.229 772.044 134.375C766.673 142.115 756.918 146.785 747.55 144.478C738.183 142.171 731.057 133.945 730.651 124.476C730.189 113.709 736.662 94.6599 750.149 95.4536C753.278 95.6382 754.202 90.7961 751.042 90.6115V90.6053Z" fill="#009193"/>
<path d="M712.027 34.9669C696.261 21.9725 671.878 29.6018 656.771 39.8583C640.931 50.607 629.26 67.6253 625.546 86.4463C623.255 98.0748 625.688 109.968 623.563 121.566C621.438 133.163 613.561 141.753 606.448 150.428C599.261 159.189 592.837 168.677 589.622 179.659C588.009 185.166 587.325 191.005 587.966 196.721C588.606 202.436 590.675 207.611 592.19 213.019C594.192 220.162 593.823 226.832 591.193 233.766C588.896 239.826 585.607 245.431 583.026 251.368C578.672 261.397 576.239 273.924 583.26 283.356C584.363 284.839 586.703 284.741 587.522 283.005C591.328 274.915 598.214 268.565 606.583 265.384C615.895 261.846 624.881 264.037 634.464 264.597C643.179 265.107 650.31 262.696 656.334 256.346C661.15 251.27 665.405 243.247 672.87 241.844C675.955 241.26 675.617 236.35 672.5 236.934C664.365 238.466 659.739 244.914 654.658 250.827C651.979 253.946 649.066 257.004 645.149 258.518C640.025 260.499 634.322 259.767 629.013 259.152C619.48 258.038 610.525 257.853 601.681 262.166C593.527 266.141 586.912 272.7 583.051 280.92L587.313 280.569C581.062 272.177 584.067 260.899 588.052 252.187C592.4 242.681 598.281 233.353 598.528 222.586C598.786 211.228 591.852 201.218 592.72 189.731C593.57 178.496 599.137 168.049 605.789 159.177C611.917 151 619.258 143.672 624.099 134.591C629.531 124.402 629.284 113.536 629.198 102.314C629.05 82.97 636.281 65.0473 650.224 51.493C657.633 44.2882 666.711 38.7385 676.583 35.6499C687.029 32.3828 699.876 31.3553 708.849 38.7447C711.288 40.7566 714.472 36.9973 712.015 34.9731L712.027 34.9669Z" fill="#009193"/>
<path d="M713.653 35.3543C729.487 21.0679 752.361 16.3057 772.795 22.0769C783.407 25.0732 793.723 31.2567 800.442 40.1042C808.214 50.3422 808.996 63.8596 814.41 75.2667C819.201 85.3694 825.822 94.4938 830.527 104.627C832.88 109.685 834.765 115.019 835.313 120.6C835.922 126.851 834.586 132.911 832.64 138.824C830.694 144.736 828.427 150.225 827.091 156.156C825.754 162.087 825.668 167.932 826.487 173.82C828.107 185.455 832.763 196.345 835.707 207.654C837.493 214.526 838.534 221.602 837.764 228.702C836.994 235.802 834.832 243.259 833.625 250.593C832.418 257.927 832.64 264.529 834.13 271.586C835.701 279.012 838.059 286.451 836.532 294.086L840.541 292.647C834.315 288.118 831.365 280.84 827.83 274.269C824.135 267.402 819.472 261.391 811.879 258.69C807.549 257.146 802.979 256.549 798.57 255.324C794.16 254.1 790.083 252.316 786.209 250.064C778.412 245.536 771.958 239.038 767.277 231.36C765.627 228.653 761.574 231.452 763.219 234.153C767.862 241.77 774.187 248.243 781.707 253.048C789.498 258.025 797.671 260.013 806.514 262.215C810.881 263.304 814.884 265.052 817.994 268.393C820.55 271.137 822.41 274.496 824.153 277.788C827.75 284.568 830.983 291.773 837.376 296.424C838.86 297.507 841.003 296.886 841.385 294.985C842.709 288.37 841.484 281.886 840.018 275.413C838.404 268.294 837.16 261.545 838.084 254.229C839.765 240.964 844.372 228.61 842.278 215.061C840.35 202.59 835.122 190.986 832.369 178.724C831.008 172.663 830.38 166.351 831.34 160.18C832.406 153.35 835.134 146.958 837.271 140.423C841.071 128.819 841.293 117.831 836.668 106.43C832.042 95.0291 825.169 85.8985 819.897 75.3836C814.182 63.9827 813.197 50.5637 806.225 39.7966C800.011 30.1923 789.904 23.0798 779.287 19.0929C756.481 10.4914 729.081 14.8598 710.857 31.2997C708.535 33.3916 711.307 37.4709 713.653 35.3543Z" fill="#009193"/>
<path d="M710.241 39.6922C712.046 41.4642 713.85 43.2423 715.655 45.0143C717.613 46.94 721.031 43.8822 719.27 41.7349C717.835 39.9875 716.4 38.234 714.965 36.4867L711.892 40.1106C713.154 40.572 714.207 41.2242 715.039 42.2948C717.016 44.8543 720.563 42.2517 719.097 39.5015C718.093 37.6249 717.096 35.7422 716.092 33.8656C714.799 31.4353 710.574 33.5518 711.738 36.0683C712.803 38.3817 713.869 40.6889 714.934 43.0023C715.488 44.2083 716.726 44.9835 718.069 44.522C719.233 44.116 720.144 42.6024 719.59 41.3903C718.525 39.0769 717.459 36.7697 716.394 34.4563L712.039 36.6589C713.043 38.5355 714.041 40.4182 715.045 42.2948L719.104 39.5015C717.761 37.7603 716.073 36.4128 713.992 35.6499C711.91 34.887 709.219 37.2065 710.919 39.2738C712.354 41.0212 713.789 42.7747 715.224 44.522C716.431 43.4269 717.632 42.3317 718.839 41.2427C717.034 39.4707 715.23 37.6926 713.425 35.9206C711.171 33.6995 708.005 37.4772 710.26 39.6922H710.241Z" fill="#009193"/>
<path d="M743.886 114.884C748.918 110.275 756.345 111.863 759.769 117.455C761.426 120.156 765.479 117.357 763.828 114.662C758.55 106.048 747.366 105.082 740.111 111.721C737.783 113.85 741.577 117 743.886 114.884Z" fill="#009193"/>
</g>
<g clip-path="url(#clip3_123_2861)">
<path d="M223.612 91.6387C219.951 81.4294 214.072 72.2141 205.706 65.252C196.887 57.9166 186.209 52.9738 175.159 50.1314C151.974 44.1723 126.213 47.5544 106.218 61.1008C95.9614 68.0494 87.1517 77.2648 81.5235 88.387C80.4794 90.4514 83.7237 91.9805 84.7722 89.9162C105.573 48.8227 164.526 39.315 200.378 65.6478C209.757 72.5379 216.313 81.8882 220.229 92.8216C221.009 95.0028 224.396 93.82 223.617 91.6387H223.612Z" fill="#FFA933"/>
<path d="M74.2822 131.909C74.7258 157.932 76.6706 183.905 79.9686 209.716C81.407 220.991 82.6483 233.894 90.3467 242.858C94.0928 247.22 99.7165 249.505 104.973 251.515C110.444 253.607 116.09 255.185 121.682 256.912C143.559 263.663 168.388 266.568 190.153 257.686C199.383 253.917 208.502 247.647 214.001 239.143C214.641 238.153 215.192 237.105 215.86 236.138C216.667 234.974 217.675 234.011 218.374 232.761C219.709 230.368 219.965 227.562 221.219 225.151C224.029 219.763 225.23 213.494 226.14 207.507C228.264 193.556 228.295 179.101 228.434 165.015C228.582 149.94 228.084 134.859 227.161 119.811C227.018 117.495 223.442 117.769 223.585 120.081C225.122 145.172 225.544 170.466 223.814 195.567C223.397 201.584 222.707 207.602 221.376 213.494C220.749 216.277 220.148 219.3 218.948 221.904C218.477 222.92 217.814 223.811 217.411 224.859C216.868 226.275 216.582 227.778 216.053 229.203C215.17 231.587 213.4 233.291 212.087 235.428C210.599 237.847 208.95 240.02 207.006 242.093C203.578 245.75 199.567 248.817 195.212 251.281C176.046 262.129 151.898 261.041 131.205 255.972C125.576 254.596 120.038 252.716 114.504 250.998C108.97 249.28 103.171 247.22 97.9241 244.364C87.7566 238.823 85.6371 225.2 84.2301 214.744C80.5198 187.188 78.3241 159.452 77.8491 131.648C77.8088 129.328 74.2329 129.611 74.2732 131.918L74.2822 131.909Z" fill="#FFA933"/>
<path d="M136.564 65.2025C138.078 81.1641 142.716 96.6894 150.213 110.852C152.032 114.288 153.905 118.097 156.419 121.079C158.933 124.061 162.307 123.796 165.883 123.369C174.805 122.307 183.776 121.682 192.756 121.489C203.21 121.264 213.66 121.641 224.069 122.595C226.35 122.802 227.018 119.267 224.719 119.055C207.987 117.526 191.143 117.423 174.406 118.876C170.373 119.226 166.161 120.18 162.119 120.121C159.802 120.09 158.834 118.417 157.719 116.658C156.661 114.99 155.648 113.294 154.68 111.576C150.943 104.951 147.883 97.9487 145.503 90.7213C142.747 82.3469 140.968 73.7073 140.135 64.9282C139.915 62.621 136.34 62.8863 136.559 65.198L136.564 65.2025Z" fill="#FFA933"/>
<path d="M82.0616 128.437C81.5418 128.495 81.0265 128.558 80.5067 128.617C79.5746 128.725 78.7366 129.552 78.8532 130.546C78.9652 131.482 79.7807 132.323 80.7755 132.206C81.2953 132.147 81.8106 132.084 82.3304 132.026C83.2625 131.918 84.1004 131.09 83.9839 130.097C83.8719 129.161 83.0564 128.32 82.0616 128.437Z" fill="#FFA933"/>
<path d="M135.511 68.4945C130.636 85.0812 129.161 102.554 130.833 119.752C130.891 120.35 131.424 122.235 131.084 122.743C130.846 123.103 128.055 123.125 127.566 123.188C125.541 123.44 123.511 123.688 121.485 123.926C117.215 124.43 112.94 124.911 108.665 125.37C100.098 126.292 91.5567 127.385 82.9935 128.325C80.6992 128.576 80.9636 132.165 83.2623 131.914C90.2707 131.144 97.2476 130.187 104.265 129.453C111.547 128.689 118.824 127.884 126.087 126.993C127.844 126.777 129.601 126.575 131.353 126.332C132.572 126.166 133.522 125.986 134.221 124.879C134.969 123.688 134.736 122.545 134.592 121.214C134.386 119.348 134.221 117.472 134.091 115.597C133.575 108.18 133.634 100.723 134.346 93.3206C135.139 85.1262 136.721 77.0352 139.042 69.1421C139.696 66.9204 136.165 66.2907 135.516 68.49L135.511 68.4945Z" fill="#FFA933"/>
<path d="M134.754 67.2131L132.908 75.0207L136.457 75.2141C136.623 71.7645 137.703 68.4184 139.58 65.5265C140.821 63.6151 138.097 61.2719 136.833 63.2148C134.391 66.9747 133.096 70.9999 132.881 75.4839C132.778 77.6112 135.986 77.5618 136.43 75.6773L138.276 67.8697C138.809 65.612 135.283 64.9688 134.75 67.2176L134.754 67.2131Z" fill="#FFA933"/>
<path d="M132.742 71.4854C129.13 88.6163 128.019 106.206 129.439 123.661C129.628 125.972 133.203 125.703 133.015 123.391C131.617 106.224 132.715 88.9896 136.268 72.1375C136.748 69.8663 133.221 69.2231 132.742 71.4854V71.4854Z" fill="#FFA933"/>
<path d="M132.54 40.3896C96.3827 37.9835 65.1455 65.7959 44.1295 92.3986C22.4727 119.806 7.89146 152.858 2.36636 187.408C1.58666 192.283 0.986201 197.186 0.578428 202.101C0.385744 204.413 0.23787 206.729 0.121363 209.05C0.0182995 211.146 -0.313296 213.502 0.887618 215.36C2.08853 217.217 4.21702 217.609 6.18867 218.049C9.02068 218.683 11.8572 219.304 14.6892 219.934C20.64 221.252 26.5908 222.569 32.5416 223.887C33.4871 224.094 34.4595 223.374 34.6297 222.443C35.6738 216.682 37.2691 211.078 39.4468 205.645L36.1309 205.474C37.9322 212.225 39.7381 218.971 41.5395 225.722C41.7501 226.514 42.6104 226.945 43.3677 226.927C47.9966 226.797 52.6255 226.671 57.2544 226.541C59.5711 226.478 61.8833 226.41 64.2 226.347C66.1 226.293 68.1568 226.455 70.0119 225.992C73.9149 225.016 74.2241 221.315 74.4481 217.896C74.7484 213.269 75.0486 208.636 75.3488 204.008L71.8939 204.274C73.3906 209.509 74.7304 214.825 76.3974 220.01C77.3787 223.073 79.9329 226.887 83.6253 225.416C85.7672 224.562 84.5932 221.162 82.4468 222.016C80.148 222.934 78.7365 215.157 78.3645 213.858C77.3384 210.269 76.3122 206.68 75.2816 203.091C74.8066 201.436 71.9432 201.544 71.8267 203.356C71.5668 207.408 71.3024 211.461 71.0425 215.508C70.9395 217.091 70.9843 218.764 70.6885 220.325C70.227 222.763 68.5914 222.623 66.5436 222.686C58.7332 222.916 50.9183 223.118 43.1078 223.334L44.9361 224.539C43.1347 217.788 41.3289 211.042 39.5275 204.292C39.1287 202.794 36.7761 202.699 36.2115 204.121C33.9262 209.832 32.2145 215.738 31.1166 221.796L33.2048 220.352C28.3877 219.286 23.5706 218.22 18.7535 217.15C16.3427 216.615 13.9364 216.084 11.5256 215.549C10.3919 215.297 9.25817 215.045 8.12447 214.798C6.99077 214.55 5.34624 214.469 4.40074 213.804C2.98474 212.805 3.65241 209.819 3.73307 208.299C3.84958 206.091 4.01089 203.882 4.20806 201.683C4.57102 197.604 5.06393 193.543 5.67783 189.495C8.17825 173.097 12.731 157.032 19.1657 141.754C31.9725 111.337 52.3522 82.9314 78.7589 62.967C93.9854 51.4535 112.407 42.6429 131.899 43.9382C134.176 44.0911 134.848 40.5515 132.549 40.3986L132.54 40.3896Z" fill="#FFA933"/>
<path d="M135.005 42.5173C142.152 37.0213 150.877 34.4578 159.606 32.7937C168.335 31.1296 177.059 30.2661 185.856 30.4685C203.103 30.8598 220.153 35.9195 233.247 47.5275C245.588 58.4654 253.559 73.46 259.703 88.5625C266.814 106.04 272.362 124.255 277.291 142.46C283.228 164.386 287.862 186.648 291.204 209.118L292.858 207.188C283.631 208.785 274.401 210.386 265.174 211.983L267.002 213.188C264.99 204.175 263.503 195.063 262.508 185.884C262.288 183.878 259.344 183.644 258.959 185.69C257.489 193.435 255.885 201.22 253.743 208.812C253.273 210.485 252.735 211.843 251.081 212.572C249.464 213.287 247.51 213.539 245.798 213.961C241.841 214.942 237.885 215.918 233.928 216.898L236.209 218.009C234.9 212.666 233.592 207.323 232.283 201.98C231.755 199.817 228.9 200.865 228.802 202.704C228.412 210.107 227.413 220.303 218.737 222.426C216.492 222.974 217.693 226.37 219.916 225.826C230.325 223.28 231.907 211.393 232.378 202.439L228.896 203.163C230.204 208.506 231.513 213.849 232.821 219.192C233.068 220.199 234.237 220.514 235.102 220.303C239.623 219.183 244.145 218.063 248.666 216.948C252.067 216.107 255.096 215.284 256.53 211.749C258.04 208.029 258.721 203.811 259.627 199.911C260.671 195.409 261.612 190.889 262.472 186.351L258.923 186.158C259.949 195.648 261.527 205.061 263.606 214.375C263.763 215.081 264.722 215.702 265.434 215.581C274.66 213.984 283.891 212.383 293.118 210.786C294.014 210.629 294.924 209.891 294.771 208.857C291.697 188.204 287.548 167.714 282.314 147.502C277.282 128.073 271.465 108.689 264.126 90.0062C258.031 74.4944 250.266 59.1355 238.279 47.3386C225.602 34.8446 208.785 28.4491 191.228 27.1539C181.177 26.4118 171.068 27.1134 161.152 28.8719C151.199 30.6349 141.121 33.2839 132.966 39.5534C131.142 40.9566 133.163 43.925 135 42.5173H135.005Z" fill="#FFA933"/>
<path d="M107.692 162.393C108.105 163.675 109.046 164.709 110.309 165.173C111.86 165.739 113.222 164.354 113.805 163.023C114.822 160.693 113.773 157.756 111.219 157.091C108.925 156.493 106.241 158.013 105.981 160.468C105.721 162.924 108.163 165.105 110.574 164.741C113.28 164.332 114.221 161.111 112.761 158.98C111.152 156.641 107.943 157.113 106.613 159.492C105.282 161.871 106.613 164.799 108.961 165.883C111.43 167.021 114.109 165.537 114.732 162.964C115.355 160.392 113.688 157.527 110.878 157.68C108.069 157.833 105.81 160.824 107.025 163.432C107.433 164.309 108.329 164.885 109.306 164.543C110.148 164.251 110.825 163.135 110.412 162.254C110.238 161.876 110.462 161.408 110.923 161.287C111.277 161.197 111.165 161.305 111.098 161.287C110.968 161.251 111.215 161.489 111.165 161.332C111.241 161.588 111.318 161.791 111.25 162.105C111.192 162.38 111.098 162.627 110.87 162.695C110.87 162.695 110.412 162.618 110.242 162.51C109.987 162.348 109.696 162.002 109.66 161.687C109.628 161.426 109.637 161.449 109.722 161.269C109.781 161.147 109.978 160.869 109.942 160.977C109.848 161.246 109.642 160.455 109.785 160.968C109.767 160.9 109.951 161.399 109.884 161.336C109.843 161.296 109.991 161.179 110.005 161.197C110.103 161.305 109.525 160.945 109.516 160.896C109.485 160.698 110.242 160.356 110.52 160.671C110.892 161.089 110.43 161.827 110.045 162.065L111.824 161.916C111.403 161.764 111.21 161.651 111.071 161.215C110.359 159.007 106.976 160.194 107.684 162.398L107.692 162.393Z" fill="#FFA933"/>
<path d="M190.493 154.37C187.451 153.106 184.462 156.924 186.492 159.587C188.522 162.249 192.823 160.725 193.406 157.671C193.988 154.617 191.094 151.77 188.011 152.692C184.892 153.623 184.09 157.275 186.295 159.551C188.203 161.525 191.726 161.597 193.092 158.944C194.257 156.677 193.146 153.61 190.901 152.485C188.32 151.199 185.663 153.092 184.955 155.624C184.193 158.345 185.882 161.174 188.786 161.341C192.425 161.548 194.929 157.482 192.626 154.446C191.533 153.002 189.637 152.413 187.957 153.151C186.277 153.888 185.147 155.656 185.47 157.468C185.64 158.422 186.357 159.204 187.392 159.128C188.28 159.06 189.216 158.161 189.046 157.198C188.961 156.726 189.324 156.164 189.749 156.591C190.224 157.073 189.817 157.644 189.27 157.743C188.952 157.801 188.692 157.734 188.459 157.527C188.428 157.5 188.347 157.284 188.347 156.987C188.347 156.744 188.405 156.465 188.54 156.205C188.629 156.029 188.889 155.741 188.876 155.75C189.31 155.552 189.624 155.827 189.848 156.308C189.942 156.515 190.005 156.897 189.978 157.068C189.942 157.311 189.902 157.428 189.714 157.45C189.44 157.486 188.786 157.073 188.652 156.821C188.45 156.447 188.782 155.971 189.391 156.092C189.794 156.173 190.126 156.87 189.803 157.216C189.718 157.311 189.324 157.306 189.297 157.347L189.404 157.572C189.382 157.963 189.328 157.59 189.463 157.563C189.427 157.572 189.14 157.693 188.97 157.621C191.094 158.503 192.631 155.251 190.493 154.361V154.37Z" fill="#FFA933"/>
<path d="M175.41 136.685C183.301 128.837 195.83 129.463 203.304 137.495C204.873 139.182 207.167 136.416 205.607 134.738C196.699 125.163 181.822 125.257 172.663 134.369C171.027 135.997 173.779 138.305 175.41 136.681V136.685Z" fill="#FFA933"/>
<path d="M97.1491 142.838C102.459 136.281 112.658 134.531 119.72 139.299C121.611 140.576 123.941 137.837 122.023 136.542C113.366 130.699 101.034 132.327 94.4022 140.526C92.9503 142.321 95.6883 144.642 97.1491 142.838Z" fill="#FFA933"/>
<path d="M141.337 151.068C139.957 165.181 138.577 179.299 137.196 193.412C137.022 195.175 136.842 196.938 136.677 198.706C136.569 199.88 136.336 201.166 136.775 202.308C137.546 204.323 139.822 204.926 141.664 204.062C143.81 203.055 144.321 200.559 144.922 198.49C145.899 195.139 146.875 191.789 147.848 188.438L144.299 188.245C144.931 193.48 146.217 198.575 148.197 203.464C148.538 204.31 149.555 204.98 150.478 204.575C152.418 203.72 153.1 202.079 153.279 200.042C153.557 196.848 153.498 193.597 153.601 190.394L150.12 191.118C150.832 193.646 151.845 196.061 153.167 198.328C154.202 200.095 155.69 202.834 157.894 203.32C163.661 204.588 161.34 195.076 161.004 192.549C159.279 179.654 157.554 166.756 155.833 153.861C155.528 151.572 151.952 151.833 152.257 154.131C153.583 164.062 154.914 173.997 156.241 183.927C156.89 188.784 157.867 193.714 158.203 198.602C158.217 198.796 158.374 199.682 158.217 199.799C158.499 199.592 157.823 198.868 157.746 198.746C157.227 197.914 156.622 197.141 156.124 196.291C154.959 194.298 154.135 192.157 153.512 189.94C152.889 187.723 150.088 188.771 150.03 190.664C149.972 192.558 149.909 194.532 149.846 196.466C149.828 197.096 150.156 200.802 149.304 201.175L151.585 202.286C149.721 197.676 148.471 192.922 147.875 187.979C147.619 185.865 144.886 185.861 144.326 187.786C143.622 190.197 142.919 192.612 142.22 195.022C141.87 196.228 141.53 197.437 141.167 198.638C141.005 199.169 140.907 199.866 140.566 200.32C139.975 201.107 140.167 200.824 140.123 200.23C139.921 197.721 140.656 194.802 140.898 192.292L141.718 183.914C142.766 173.183 143.819 162.447 144.868 151.716C145.092 149.427 141.57 148.757 141.341 151.064L141.337 151.068Z" fill="#FFA933"/>
<path d="M120.491 224C133.629 222.844 146.055 229.545 159.256 227.917C170.607 226.518 181.168 220.559 188.186 211.492C189.597 209.671 186.859 207.341 185.439 209.18C178.574 218.049 168.102 223.748 156.913 224.53C144.469 225.403 132.706 219.318 120.222 220.415C117.919 220.617 118.188 224.206 120.491 224.004V224Z" fill="#FFA933"/>
<path d="M133.934 222.133C135.605 221.481 136.757 220.312 138.025 219.084C139.481 217.672 140.431 217.276 141.932 218.832C144.088 221.067 146.292 223.883 149.729 222.079C151.459 221.171 152.584 218.823 154.658 218.715C157.172 218.585 159.26 221 161.048 222.43C164.306 225.039 168.63 226.419 171.996 223.24C173.671 221.656 170.916 219.354 169.249 220.928C167.282 222.785 164.293 220.46 162.774 219.192C161.066 217.771 159.413 216.304 157.275 215.585C155.492 214.982 153.525 214.924 151.831 215.828C150.549 216.511 149.008 219.025 147.556 219.066C146.409 219.097 145.248 217.163 144.572 216.43C143.59 215.369 142.443 214.411 140.978 214.164C137.07 213.502 135.847 217.532 132.769 218.733C130.618 219.57 131.792 222.97 133.947 222.133H133.934Z" fill="#FFA933"/>
<path d="M132.007 227.93C136.299 233.701 143.285 237.195 150.504 236.741C157.723 236.287 164.207 231.888 167.752 225.623C168.89 223.608 165.641 222.088 164.503 224.094C158.225 235.194 142.533 236.071 134.955 225.888C133.579 224.04 130.622 226.073 132.002 227.93H132.007Z" fill="#FFA933"/>
<path d="M96.1762 185.42C91.6594 188.735 91.3815 195.297 95.1456 199.318C99.1427 203.586 105.515 204.031 110.426 201.18C115.225 198.396 118.384 192.612 117.259 187.044C116.076 181.175 109.682 178.859 104.314 179.808C98.5691 180.824 93.7296 185.011 92.3315 190.741C91.7804 192.994 95.3114 193.633 95.8581 191.393C96.8842 187.183 100.671 184.089 104.856 183.347C106.953 182.974 109.229 183.199 111.111 184.238C113.89 185.767 114.387 188.978 113.554 191.838C112.223 196.394 107.459 200.087 102.638 199.363C97.7446 198.63 93.1067 192.131 98.2151 188.384C100.075 187.022 98.0493 184.053 96.1807 185.42H96.1762Z" fill="#FFA933"/>
<path d="M190.412 176.066C183.91 177.356 179.662 184.062 182.468 190.417C185.273 196.772 192.644 197.923 198.451 195.014C203.82 192.324 210.093 185.641 206.508 179.29C202.404 172.022 193.343 173.772 187.137 176.745C185.076 177.734 186.236 181.139 188.315 180.145C192.536 178.121 198.474 175.868 202.386 179.754C206.428 183.77 201.628 188.924 198.021 191.164C194.414 193.403 189.171 194.164 186.42 190.17C183.668 186.171 185.909 180.604 190.686 179.655C192.926 179.209 192.68 175.616 190.417 176.066H190.412Z" fill="#FFA933"/>
<path d="M76.9214 133.214C79.3905 132.786 81.8685 132.462 84.3599 132.251C86.6632 132.058 86.3943 128.469 84.0911 128.662C81.5951 128.873 79.1171 129.193 76.6526 129.625C74.3941 130.016 74.6451 133.609 76.9214 133.214Z" fill="#FFA933"/>
</g>
<g clip-path="url(#clip4_123_2861)">
<path d="M431.26 43.8517C392.074 46.8981 356.101 74.8865 343.931 112.525C336.541 135.383 337.784 160.152 344.235 183.077C347.415 194.366 351.685 205.775 357.846 215.784C364.007 225.793 372.864 233.126 382.925 238.994C421.939 261.759 473.394 261.294 508.607 231.348C542.927 202.165 550.344 151.551 541.361 109.246C538.988 98.0762 534.737 87.3176 527.658 78.2846C521.424 70.3268 513.551 63.8756 504.839 58.8249C484.215 46.8716 459.995 44.0575 436.568 44.5354C430.09 44.6681 423.625 45.0464 417.16 45.5309C413.756 45.7831 414.159 51.0795 417.557 50.8273C440.964 49.0884 465.448 48.5574 487.831 56.7475C506.386 63.5438 523.368 76.2471 531.373 94.8374C535.848 105.218 537.712 116.474 538.657 127.677C539.603 138.881 539.583 149.082 538.393 159.708C536.092 180.243 529.304 200.565 515.918 216.554C488.029 249.865 440.494 257.617 401.223 242C390.838 237.872 380.526 232.41 372.164 224.89C363.815 217.377 358.672 207.342 354.561 197.028C346.165 175.975 341.915 152.726 345.227 130.126C350.859 91.7246 380.612 60.0328 418.171 51.179C422.6 50.137 427.109 49.4932 431.643 49.1414C435.041 48.876 434.644 43.5796 431.247 43.8451L431.26 43.8517Z" fill="#314476"/>
<path d="M338.795 134.056C332.588 131.879 325.303 132.29 320.246 136.91C314.68 141.987 313.88 150.721 315.269 157.737C318.58 174.462 333.169 184.457 346.919 192.395C349.867 194.101 352.101 189.282 349.166 187.583C338.352 181.338 326.711 173.938 321.938 161.745C319.77 156.203 318.918 149.4 321.588 143.865C324.259 138.33 331.087 136.936 336.554 138.854C339.733 139.969 342.02 135.177 338.801 134.042L338.795 134.056Z" fill="#314476"/>
<path d="M545.823 137.825C551.719 135.224 558.957 132.775 564.992 136.385C571.808 140.46 569.706 149.022 565.72 154.338C561.733 159.655 556.379 164.307 551.474 168.88C546.021 173.964 540.389 178.856 534.631 183.588C532.014 185.738 534.995 190.125 537.632 187.962C544.877 182.001 551.911 175.783 558.699 169.305C564.569 163.697 571.563 157.823 573.976 149.759C576.084 142.697 573.804 135.27 567.24 131.587C559.876 127.452 551.349 129.615 544.091 132.814C540.99 134.182 542.709 139.206 545.829 137.832L545.823 137.825Z" fill="#314476"/>
<path d="M331.173 130.306C327.558 126.788 326.54 121.133 328.926 116.647C331.094 112.565 335.067 109.777 337.771 106.094C340.798 101.966 341.452 97.7113 341.406 92.6606C341.36 87.2978 342.252 82.6055 345.967 78.5038C349.682 74.4021 354.23 73.838 358.884 71.9265C361.23 70.9641 363.352 69.6898 365.078 67.7916C366.803 65.8934 367.953 63.5572 369.784 61.7453C378.662 52.938 392.742 55.7189 403.609 57.9091C406.954 58.5794 407.906 53.3561 404.568 52.6858C394.692 50.7013 384.082 48.7566 374.398 52.6592C370.366 54.2853 366.724 56.8073 364.066 60.2918C362.539 62.2895 361.349 64.5196 359.188 65.9133C357.139 67.2341 354.633 67.7784 352.346 68.5416C344.387 71.2097 338.167 77.4618 336.515 85.8908C335.563 90.7491 337.182 96.0654 334.981 100.645C333.196 104.362 329.68 107.023 327.075 110.136C320.947 117.45 320.769 127.551 327.782 134.388C330.222 136.764 333.619 132.695 331.18 130.319L331.173 130.306Z" fill="#314476"/>
<path d="M509.519 60.6567C517.041 59.8802 524.643 62.993 529.449 68.8999C531.941 71.9596 532.84 75.2781 534.228 78.8754C535.616 82.4726 538.055 84.9615 541.288 87.1385C544.712 89.4481 547.713 91.6915 549.141 95.76C550.714 100.247 549.214 104.295 548.453 108.755C547.759 112.824 548.229 116.421 550.192 120.065C552.155 123.708 556.188 127.916 553.517 132.137C551.699 135.011 556.505 137.248 558.309 134.394C560.722 130.571 559.691 126.018 557.662 122.262C556.505 120.124 554.872 118.173 554.019 115.883C552.968 113.069 553.517 110.322 554.132 107.461C555.09 103.034 555.712 98.9059 554.31 94.4923C552.909 90.0787 550.02 86.7004 546.312 84.1452C544.454 82.8642 542.246 81.7359 540.792 79.9638C539.338 78.1917 538.862 75.8953 538.122 73.7649C536.8 69.9353 534.645 66.5305 531.815 63.6434C525.945 57.6369 517.464 54.5042 509.129 55.367C505.744 55.7188 506.134 61.0151 509.525 60.6634L509.519 60.6567Z" fill="#314476"/>
<path d="M407.654 55.8914C408.289 49.8982 412.863 44.5819 419.117 44.3297C421.972 44.2169 424.854 45.1593 427.141 46.8651C429.607 48.7101 430.678 51.3185 432.317 53.8074C434.869 57.6768 439.337 60.1524 443.542 56.9998C448.308 53.4291 448.189 46.281 452.175 42.0333C454.316 39.7502 457.886 38.1639 460.722 40.2015C463.088 41.9072 464.04 45.1793 464.556 47.9071C465.521 52.9844 465.6 61.2541 471.186 63.743C476.772 66.2319 480.91 59.9334 483.065 55.8914C484.42 53.3494 485.524 50.5818 487.903 48.8031C491.01 46.4801 493.489 48.2389 494.216 51.6636C494.943 55.0883 494.533 58.9179 494.474 62.4488C494.434 65.0306 494.441 68.077 496.616 69.9088C498.79 71.7406 501.144 70.8845 502.895 69.0991C505.923 66.0062 508.435 62.1501 511.119 58.7586C513.227 56.0905 509.195 52.6592 507.066 55.3472C504.779 58.2343 501.791 61.1347 499.96 64.3271L499.174 65.3226L499.934 65.5616C499.861 64.7983 499.742 64.128 499.736 63.3514C499.736 61.1944 499.815 59.0307 499.841 56.8737C499.901 52.0751 499.425 45.8098 494.626 43.2678C489.477 40.5466 484.003 44.1306 481.128 48.4579C479.687 50.6349 478.741 53.0839 477.366 55.2874C476.428 56.7874 475.436 58.5462 473.559 58.1745C471.305 57.7299 470.895 53.9999 470.545 51.9888C469.606 46.5797 469.09 40.6263 464.774 36.6839C460.457 32.7415 454.422 33.372 450.099 36.7635C447.799 38.5688 446.139 41.0178 444.857 43.6262C443.575 46.2345 443.019 50.157 440.911 52.2344C438.326 54.7897 436.462 50.4424 435.325 48.5044C433.963 46.1748 432.377 44.1041 430.176 42.5112C419.295 34.6065 403.867 41.4957 402.452 54.9224C402.095 58.3007 407.297 59.2896 407.654 55.8848V55.8914Z" fill="#314476"/>
<path d="M372.422 133.465C382.952 129.854 394.051 129.821 404.64 133.206C406.24 133.717 407.952 131.945 407.754 130.399C405.209 110.415 376.738 113.229 368.674 127.531C367.001 130.505 371.794 132.748 373.466 129.788C378.913 120.118 400.654 116.454 402.479 130.797L405.592 127.989C394.176 124.346 382 124.571 370.683 128.454C367.457 129.562 369.203 134.573 372.422 133.472V133.465Z" fill="#314476"/>
<path d="M470.796 129.337C481.623 126.742 492.775 127.047 503.497 129.987C505.321 130.492 506.531 128.726 506.61 127.18C507.1 117.908 498.5 110.421 489.662 110.076C479.971 109.704 471.906 116.753 467.511 124.843C465.878 127.843 470.67 130.093 472.303 127.1C475.535 121.153 481.267 115.757 488.326 115.386C495.386 115.014 501.712 120.523 501.342 127.578L504.455 124.77C492.815 121.578 480.784 121.512 469.064 124.319C465.752 125.116 467.517 130.12 470.802 129.337H470.796Z" fill="#314476"/>
<path d="M388.703 142.339C385.722 143.958 385.682 148.458 387.936 150.688C390.514 153.237 394.5 151.949 395.901 148.823C397.415 145.452 395.168 141.516 391.367 141.615C387.876 141.702 384.869 145.259 386.231 148.717C387.764 152.6 393.039 153.489 395.558 150.064C398.228 146.434 395.544 141.808 391.512 140.885C388.042 140.096 384.314 142.093 383.686 145.744C383.058 149.394 385.722 153.058 389.476 152.732C393.502 152.381 397.131 145.996 392.649 143.58C388.901 141.556 384.234 145.538 385.629 149.567C386.746 152.799 391.744 151.053 390.626 147.821C390.692 148.013 390.54 148.299 390.488 148.458C390.455 148.571 390.805 148.179 390.573 148.359C390.375 148.511 390.64 148.252 390.745 148.292C390.587 148.239 390.23 148.365 390.051 148.213L389.251 147.051C389.529 147.715 389.298 147.137 389.41 146.958C389.265 147.197 389.192 147.29 389.298 147.237C389 147.396 389.132 147.509 389.146 147.496C389.053 147.595 388.947 147.144 389.047 147.39C389.152 147.662 388.868 146.925 388.868 146.905C388.881 146.985 388.98 146.354 388.908 146.487C389.245 145.91 390.289 145.863 390.937 146.301C391.155 146.447 391.254 146.593 391.38 146.792C391.287 146.653 391.175 147.522 391.472 146.978C391.446 147.025 391.116 146.925 391.175 146.978C391.201 146.998 391.102 147.224 391.056 147.224C391.03 147.224 391.38 146.945 391.4 146.932C391.195 147.104 391.539 146.746 391.472 146.932C391.472 146.945 391.572 146.932 391.585 146.945C391.354 146.792 391.228 146.514 391.096 146.401C391.076 146.387 391.003 146.64 391.116 146.52C391.354 146.255 390.864 146.912 391.122 146.64C391.043 146.726 390.97 146.998 390.818 146.945C390.891 146.971 391.34 146.825 391.499 146.845C391.684 146.865 391.816 146.925 391.506 146.819C391.975 146.985 391.499 147.217 391.631 146.865C391.512 147.177 391.585 146.58 391.605 146.474C391.558 146.746 391.763 146.852 391.671 146.533C391.724 146.713 391.116 147.031 391.704 146.713C392.96 146.029 393.132 144.111 392.378 143.022C391.492 141.735 389.959 141.655 388.703 142.345V142.339Z" fill="#314476"/>
<path d="M486.944 139.179C484.307 138.741 481.663 140.182 480.526 142.624C479.455 144.92 480.103 147.735 482.198 149.195C484.082 150.509 486.72 150.774 488.696 149.467C490.673 148.159 491.433 145.445 490.514 143.188C489.522 140.759 487.063 139.179 484.446 139.817C482.079 140.394 480.651 142.797 480.665 145.139C480.678 147.708 482.687 149.845 485.265 149.872C487.639 149.898 489.979 148.04 490.435 145.677C491.003 142.73 488.584 140.241 485.688 140.347C482.952 140.447 480.962 142.412 480.87 145.133C480.823 146.566 482.39 147.681 483.705 147.582C485.259 147.462 486.098 146.175 486.145 144.735C486.171 144.94 486.145 145.133 486.059 145.325C485.834 145.637 485.814 145.684 485.999 145.458L485.748 145.69C485.999 145.531 485.953 145.544 485.609 145.73C485.821 145.591 486.098 145.471 485.688 145.664C485.821 145.644 485.946 145.637 486.079 145.637C485.728 145.611 485.695 145.624 485.973 145.67L485.688 145.584C485.946 145.717 485.913 145.69 485.583 145.504C485.411 145.358 485.292 145.173 485.232 144.954C485.325 145.212 485.338 145.252 485.279 145.066C485.279 145.04 485.239 144.19 485.437 144.316C485.371 144.416 485.298 144.502 485.219 144.589C485.087 144.735 485.113 144.708 485.305 144.509C485.041 144.675 485.041 144.688 485.325 144.535C485.067 144.615 485.034 144.635 485.219 144.595C485.404 144.562 485.365 144.562 485.107 144.595C485.259 144.569 485.404 144.582 485.543 144.642C485.603 144.668 486.217 145.186 485.821 144.821C485.979 145.159 486.006 145.186 485.9 144.9C485.953 145.206 485.973 145.259 485.953 145.066C485.946 144.874 485.933 144.927 485.92 145.219C485.933 145.08 485.96 144.94 485.993 144.801C485.887 145.319 486.012 144.814 486.098 144.655C485.913 144.934 485.913 144.96 486.098 144.728C485.841 144.94 485.801 144.987 485.96 144.867C486.125 144.754 486.065 144.781 485.781 144.947C486.059 144.861 486.045 144.861 485.755 144.954C485.603 144.974 485.457 144.94 485.318 144.861L485.523 144.954C485.272 144.774 485.265 144.781 485.503 144.967C485.298 144.708 485.298 144.708 485.49 144.96L485.622 145.153C485.49 144.861 485.484 144.861 485.609 145.153C485.695 145.451 485.702 145.451 485.629 145.153L485.649 145.385C485.675 145.086 485.669 145.093 485.622 145.385C485.636 145.232 485.702 145.1 485.807 144.993C485.523 145.498 486.026 144.602 485.695 145.093C486.019 144.94 486.039 144.92 485.748 145.033L486.006 144.993C485.86 145.013 485.722 145.027 485.576 145.033C485.887 145.06 485.893 145.053 485.596 145.02C485.14 144.768 485.834 145.352 485.404 144.967C484.975 144.582 485.688 145.212 485.252 144.874C485.027 144.662 485.041 144.681 485.292 144.934C485.127 144.675 485.133 144.695 485.305 145C485.226 144.768 485.213 144.721 485.259 144.867C485.298 144.94 485.298 145.02 485.259 145.106C485.325 144.801 485.325 144.768 485.259 145C485.391 144.748 485.417 144.688 485.325 144.827C485.113 145.073 485.821 144.084 485.497 144.608C485.748 144.456 485.794 144.416 485.629 144.489C485.464 144.555 485.517 144.535 485.788 144.423C486.35 144.21 485.391 144.31 485.993 144.409C489.351 144.967 490.316 139.744 486.951 139.186L486.944 139.179Z" fill="#314476"/>
<path d="M422.811 140.991C420.59 147.004 418.435 153.044 416.353 159.104C415.381 161.931 414.423 164.765 413.484 167.606C412.704 169.955 411.574 172.464 411.462 174.973C411.29 178.849 414.165 182.36 418.283 181.285C420.174 180.787 421.833 179.446 423.003 177.906C424.391 176.081 424.966 172.935 427.3 172.126L423.796 169.816C423.968 176.028 426.176 184.822 434.161 184.112C440.177 183.581 442.345 176.659 443.092 171.634L440.011 173.765C441.697 174.256 442.689 176.333 443.753 177.608C444.817 178.882 446.033 180.11 447.626 180.774C451.196 182.274 454.977 180.209 456.782 177.037C459.267 172.67 457.43 167.732 455.856 163.391C453.761 157.59 451.646 151.79 449.537 145.989C448.373 142.777 443.376 144.522 444.539 147.735C446.047 151.876 447.547 156.024 449.054 160.166C450.37 163.789 452.981 168.455 452.677 172.384C452.538 174.216 451.335 176.592 449.206 175.637C448.169 175.172 447.336 173.579 446.668 172.743C445.062 170.725 443.475 169.265 440.97 168.542C439.628 168.15 438.088 169.365 437.89 170.672C437.526 173.114 436.984 177.263 434.512 178.53C429.726 180.993 429.137 171.993 429.071 169.411C429.025 167.679 427.115 166.564 425.568 167.101C422.607 168.13 421.146 170.46 419.711 173.108C419.222 174.004 417.351 177.256 416.77 175.232C416.294 173.586 418.158 170.221 418.687 168.628C421.522 160.113 424.51 151.65 427.617 143.228C428.787 140.049 424.015 137.759 422.825 140.971L422.811 140.991Z" fill="#314476"/>
<path d="M391.816 206.844C423.995 223.682 465.56 219.176 493.35 195.714C495.935 193.537 492.953 189.143 490.349 191.34C463.888 213.687 424.742 218.087 394.057 202.039C391.036 200.459 388.795 205.271 391.809 206.851L391.816 206.844Z" fill="#314476"/>
<path d="M384.26 195.973C381.716 200.207 380.631 205.025 380.949 209.95C381.173 213.368 386.448 212.963 386.224 209.552C385.959 205.457 386.944 201.734 389.046 198.223C390.798 195.302 386.006 193.066 384.254 195.966L384.26 195.973Z" fill="#314476"/>
<path d="M493.013 187.192C495.525 191.015 498.043 194.838 500.555 198.66C502.433 201.514 506.782 198.501 504.912 195.647L497.369 184.178C495.492 181.325 491.142 184.338 493.013 187.192Z" fill="#314476"/>
</g>
<defs>
<clipPath id="clip0_123_2861">
<rect width="214.328" height="293.756" fill="white" transform="translate(854.151 0.000244141)"/>
</clipPath>
<clipPath id="clip1_123_2861">
<rect width="241.858" height="249.66" fill="white" transform="translate(1079.83 23.7566)"/>
</clipPath>
<clipPath id="clip2_123_2861">
<rect width="263.963" height="282.167" fill="white" transform="translate(578.844 14.7737)"/>
</clipPath>
<clipPath id="clip3_123_2861">
<rect width="294.802" height="236.379" fill="white" transform="translate(0.00012207 26.8613)"/>
</clipPath>
<clipPath id="clip4_123_2861">
<rect width="260.062" height="221.053" fill="white" transform="translate(314.674 34.009)"/>
</clipPath>
</defs>
</svg>
